<?xml version="1.0" standalone="no"?>
<!DOCTYPE svg PUBLIC "-//W3C//DTD SVG 20010904//EN"
 "http://www.w3.org/TR/2001/REC-SVG-20010904/DTD/svg10.dtd">
<svg version="1.0" xmlns="http://www.w3.org/2000/svg"
 width="360.000000pt" height="360.000000pt" viewBox="0 0 360.000000 360.000000"
 preserveAspectRatio="xMidYMid meet">
<metadata>
Created by potrace 1.16, written by Peter Selinger 2001-2019
</metadata>
<g transform="translate(0.000000,360.000000) scale(0.100000,-0.100000)"
fill="#000000" stroke="none">
<path d="M1605 2744 c-534 -78 -1024 -335 -1502 -789 l-103 -97 0 -58 0 -58
90 -86 c433 -411 895 -674 1360 -774 113 -24 145 -26 345 -27 191 0 235 3 335
23 460 93 923 351 1356 757 l114 107 0 58 0 58 -114 107 c-359 336 -734 569
-1116 693 -205 66 -315 84 -540 87 -107 2 -208 1 -225 -1z m383 -154 c248 -59
454 -234 562 -476 82 -185 79 -459 -7 -642 -85 -182 -236 -335 -407 -412 -205
-93 -467 -93 -670 -1 -182 83 -347 253 -420 437 -77 192 -75 427 4 617 98 234
311 416 558 477 107 26 271 26 380 0z m-910 -167 c-74 -79 -148 -213 -194
-353 -27 -80 -28 -95 -29 -265 0 -205 8 -247 80 -402 48 -103 91 -170 143
-225 20 -21 30 -38 23 -38 -7 0 -81 35 -165 77 -162 84 -360 211 -494 318
-111 90 -292 254 -292 265 0 13 207 199 315 282 144 112 300 212 466 298 85
44 161 80 169 80 8 0 0 -15 -22 -37z m1545 -19 c182 -91 321 -178 489 -306
108 -82 338 -285 338 -298 0 -13 -229 -215 -338 -298 -100 -77 -212 -152 -317
-214 -79 -47 -282 -148 -296 -148 -6 0 4 17 23 38 81 89 150 216 194 357 27
85 29 101 29 265 0 164 -2 180 -29 265 -43 137 -115 269 -192 354 -20 23 -31
41 -25 41 6 0 62 -25 124 -56z"/>
<path d="M1699 2166 c-99 -26 -183 -97 -236 -198 -26 -49 -28 -62 -28 -163 0
-106 1 -112 34 -173 95 -175 285 -243 474 -171 75 29 159 108 195 186 24 51
27 70 27 158 0 87 -3 107 -26 156 -79 168 -262 253 -440 205z m197 -150 c120
-56 167 -190 110 -312 -69 -148 -276 -176 -381 -52 -40 47 -55 89 -55 153 0
99 44 168 135 211 64 31 125 31 191 0z"/>
</g>
</svg>
